<?xml version="1.0" encoding="utf-8"?>
<!-- Generator: Adobe Illustrator 25.2.3, SVG Export Plug-In . SVG Version: 6.00 Build 0)  -->
<svg version="1.1" id="Layer_1" xmlns="http://www.w3.org/2000/svg" xmlns:xlink="http://www.w3.org/1999/xlink" x="0px" y="0px"
	 viewBox="0 0 128 64" style="enable-background:new 0 0 128 64;" xml:space="preserve">
<style type="text/css">
	.st0{fill:#BCE4E5;}
</style>
<path class="st0" d="M122.3,50.6c-1.6-3.3-8.7-10.1-8.7-10.1c-1.6,0-3.3,1.4-3.3,1.4l-2.5-4.4l-2.5,1.6c-1.1-1.6-6.4-10.2-8.7-13.3
	c-1.6-2.3-4.1-4.6-4.1-4.6s-1.7,1.1-2.2,1.3C87,24.2,81,28.2,81,28.2S76.1,20,73.6,17s-9-8.7-9-8.7s-9,10.3-10.9,12.8
	S45,31.2,45,31.2c-0.3-0.8-6.5-6.3-6.5-6.3s-3.3,4.4-4.6,5.2s-8.5,6.8-11.2,10.1s-6.3,6.5-6.3,6.5l-2.5-1.6l-4.4,7.4
	c0,0-3,4.9-5.2,6.3C2.5,60.1,0,64.2,0,64.2s63.2,0.3,72.7,0s55.3-0.5,55.3-0.5S123.9,53.9,122.3,50.6z M15.3,59.6l-1.1-2.2
	c0,0-5.5,3-7.9,3.5c0,0,4.1-2.5,5.5-5.2s3-6.8,3-6.8s2.2,3.8,3.5,4.4s-1.1,2.5-1.1,2.5l2.2,2.5L15.3,59.6z M31.1,36.5
	c2.2-1.9,7.4-6.3,8.2-6.3l-1.1,5.7l-7.4,4.9l-9.5,6.5C21.3,47.4,28.9,38.4,31.1,36.5z M58.6,36.8L52,43.6l6.3-1.1l-5.2,4.9l4.4,0.8
	c0,0-4.6,3.8-4.6,4.9s1.6,6,3,6.3c0,0-11.4,0.3-14.2,1.1l-2.5-1.4l-10.6,2.2l3.3-2.5l-7.1,1.6c0,0,6.8-4.4,7.9-6.8l-5.2-0.2
	c0,0,9.3-5.2,11.7-8.5l-4.6,0.3c0,0,6.8-7.6,8.7-9.8c0,0,8.5-8.2,18.5-18.2l-4.1,11.7l6.8-1.6L55,33.7L58.6,36.8z M95.1,47.6
	c-3,0.8-15.2,8.5-15.2,8.5s4.6-6.3,4.9-8.2c0.3-1.9,5.7-7.9,5.7-7.9c-1.6,0-7.6,1.9-7.6,1.9l3.5-4.6l-9.8,2.2
	c1.4-1.9,7.4-7.1,7.4-7.1s-4.1,0.5-3.3-0.3c0.8-0.8,10.3-7.4,10.3-7.4s5.7,6.8,8.5,10.3c2.7,3.5,8.2,12.2,8.2,12.2
	S98.1,46.8,95.1,47.6z M119.3,56.9c-1.1-0.3-7.1,0.5-7.1,0.5l2.5-3l-7.9,0.3c0,0,4.1-2.7,4.6-3.5s-1.1-4.9-1.1-4.9s2.5-1.4,3.3-1.4
	c0,0,4.9,6.3,6.5,8.2c1.6,1.9,3.8,8.2,3.8,8.2S120.4,57.2,119.3,56.9z"/>
</svg>
