<?xml version="1.0" encoding="utf-8"?>
<!-- Generator: Adobe Illustrator 25.2.3, SVG Export Plug-In . SVG Version: 6.00 Build 0)  -->
<svg version="1.1" id="Layer_1" xmlns="http://www.w3.org/2000/svg" xmlns:xlink="http://www.w3.org/1999/xlink" x="0px" y="0px"
	 viewBox="0 0 128 64" style="enable-background:new 0 0 128 64;" xml:space="preserve">
<style type="text/css">
	.st0{fill:#BCE4E5;}
</style>
<path class="st0" d="M122.9,60.6c-2.2-1.3-4.2-5.5-7.1-9.2c-3-3.6-4.6-8.4-4.8-9c-0.3-0.7,0.1-4.3,0.1-4.3s-3.1,1.9-3.4,3.1
	s-0.4,4.2,0.3,5c0.7,0.8,2.2,2.8,1.6,3.4c-6.1-2.7-8.6-7.8-14.8-13.6c-6.2-5.8-9.4-13.4-9.4-13.4c-1.8,2.2-1.6,5.3-3,5.7
	c-1.3,0.4-3.1-1.3-3.1-1.3s1.5,3.1,2.2,3.6s2.2-0.1,2.8,0.3c2.2,2.8,6.8,8.2,5.7,8c-1.9-0.3-5.4-5.5-5.8-5.5s-1.5,1.5-2.8,0.7
	C74.8,28.2,64.1,7,63.7,7.8s-1.8,4.3-6.3,11.5S45.5,34.2,45.5,34.2c1.1,0.8,5,6.9,4.7,8c-5-2-10.5-13.4-10.9-12.8s-1.3,4.2-8.4,13.2
	s-15.4,16-15.7,15.3C15,57.2,20,52.4,20,52c0-0.4-2.3-5-2.7-4.7c-0.4,0.3-1,3.4-6.3,9C5.6,62,0.3,63.9,0.3,63.9h127.6
	C127.9,63.9,125,62,122.9,60.6z M46.6,52l0.5-2.8l-5-2.6l-0.8,2.2L40,45.9c0,0-3.2,3.1-3.6,4.7c-0.4,1.6-1.2,3-1.2,3l-1-3.1
	c0,0-1.2,1.9-2,3.2C31.4,55,28,57.5,28,57.5l0.5-2.6c0,0-8.2,4.7-11.3,5.8c0,0,6.3-5.3,8-6.9c1.6-1.6,7.7-8.4,7.7-8.4l1.1,2
	c0,0,0.4-4.7,0.5-5.3c0.1-0.5,2.7-2.7,2.8-3.4c0.1-0.7,2.7-4,2.7-4s3.9,6.2,5.7,8.1s8.8,4.3,8.8,4.3L53.4,49l5.3,1.9
	c0,0-6.6,0-7.8,0C49.6,51,46.6,52,46.6,52z M58.4,57.7H56c0,0-0.5-1.3-0.8-1.9c-0.3-0.5-2.6-2-2.6-2l3.1-0.8l3.9,1.5l0.4,2l1.9,4.2
	L58.4,57.7z M67.8,51.6c0,0-0.4-4.8-1.1-6.3S64,42.7,64,40.8s-0.8-5.4-0.8-5.4s2.3,3.1,2.7,4.6s1.9,2.4,2.3,4.2
	C68.6,45.9,67.8,51.6,67.8,51.6z M87.2,45.4c0,0-3.2-2.2-4.2-3.5c0,0-0.5,2.7-0.7,2.3s-3-3.9-5.3-5.3c-2.3-1.3-4.3-1.8-4.3-1.8
	s2-1.8,1.3-2.3s-3.5-3.2-3.5-3.2s1.8,0.1,1.8-0.4s-3.6-3.6-3.6-3.6s-0.7,6.1,0,9.9c0,0-3.5-4.6-4-6.1c-0.5-1.5-1.1-4-1.1-4
	S59.8,32,59,32.5v-3.4c0,0-4.5,4.2-4.8,4.3c-0.4,0.1-3.4-0.3-4.6,0.7c0,0,5.4-6.9,8.5-11.6s5.7-9.2,5.7-9.2s5.2,9.4,7.7,13.2
	s7,10.3,8.2,10.7s4,0,4,0s7,5.8,11.6,8.1c0,0-5.5-1.2-7.1-1.9C86.6,42.7,87.2,45.4,87.2,45.4z M93.3,50.7c-2.4-2.4-3-2.7-2.8-3.1
	l2.4,0.5c0,0,2.7,1.5,3.6,3c1,1.5,2.6,6.1,2.6,6.1C98.4,54.6,95.8,53.1,93.3,50.7z M110.7,58.3c-2-0.1-5.1-1.7-5.1-1.7
	s1.6-0.5,1.3-1.9c-0.3-1.3-3.1-4.7-4.2-6.1l5.1,3c0,0,1.6,3.5,3.9,4.7s4.2,4,4.2,4S112.7,58.5,110.7,58.3z"/>
</svg>
